<svg xmlns="http://www.w3.org/2000/svg" xmlns:xlink="http://www.w3.org/1999/xlink" width="500" zoomAndPan="magnify" viewBox="0 0 375 374.999991" height="500" preserveAspectRatio="xMidYMid meet" version="1.0"><defs><g/><clipPath id="66cb1e4407"><path d="M 67 116 L 368 116 L 368 165 L 67 165 Z M 67 116 " clip-rule="nonzero"/></clipPath><clipPath id="d881f14c11"><path d="M 65.203125 115.457031 L 364.535156 95.417969 L 368.691406 157.53125 L 69.359375 177.566406 Z M 65.203125 115.457031 " clip-rule="nonzero"/></clipPath><clipPath id="8ce8b6cc86"><path d="M 69.339844 177.226562 L 368.667969 157.191406 L 364.511719 95.078125 L 65.179688 115.117188 Z M 69.339844 177.226562 " clip-rule="nonzero"/></clipPath></defs><g fill="#fdd122" fill-opacity="1"><g transform="translate(28.276163, 216.725386)"><g><path d="M 23.59375 -18.453125 C 22.65625 -16.515625 21.054688 -14.363281 18.796875 -12 C 16.535156 -9.632812 13.972656 -8.132812 11.109375 -7.5 C 8.242188 -6.863281 5.507812 -7.847656 2.90625 -10.453125 C 1.90625 -11.609375 1.171875 -12.9375 0.703125 -14.4375 C 0.234375 -15.9375 0.0625 -17.410156 0.1875 -18.859375 C 0.1875 -19.253906 0.1875 -19.753906 0.1875 -20.359375 C 0.1875 -21.910156 0.253906 -23.703125 0.390625 -25.734375 C 0.523438 -27.765625 0.828125 -29.597656 1.296875 -31.234375 C 1.765625 -32.867188 2.5 -33.851562 3.5 -34.1875 C 6.375 -34.914062 7.9375 -33.914062 8.1875 -31.1875 C 8.1875 -30.300781 8.15625 -29.421875 8.09375 -28.546875 C 8.03125 -28.085938 8 -27.664062 8 -27.28125 C 7.9375 -26 7.875 -24.722656 7.8125 -23.453125 C 7.8125 -22.453125 7.769531 -21.453125 7.6875 -20.453125 C 7.625 -16.054688 8.609375 -13.441406 10.640625 -12.609375 C 12.671875 -11.773438 14.988281 -12.660156 17.59375 -15.265625 C 20.195312 -17.878906 21.898438 -20.046875 22.703125 -21.765625 C 23.503906 -23.492188 24.085938 -23.859375 24.453125 -22.859375 C 24.816406 -21.859375 24.53125 -20.390625 23.59375 -18.453125 Z M 7.59375 -43.546875 C 7.195312 -43.210938 6.71875 -43 6.15625 -42.90625 C 5.59375 -42.820312 5.101562 -42.867188 4.6875 -43.046875 C 4.351562 -43.316406 4.140625 -43.671875 4.046875 -44.109375 C 3.953125 -44.554688 3.90625 -45.082031 3.90625 -45.6875 C 3.90625 -45.800781 3.9375 -45.921875 4 -46.046875 C 4.0625 -46.585938 4.195312 -47.132812 4.40625 -47.6875 C 5.007812 -49.132812 6.269531 -49.800781 8.1875 -49.6875 C 8.851562 -49.59375 9.375 -49.316406 9.75 -48.859375 C 10.125 -48.410156 10.207031 -47.882812 10 -47.28125 C 9.539062 -45.789062 8.738281 -44.546875 7.59375 -43.546875 Z M 7.59375 -43.546875 "/></g></g></g><g fill="#fdd122" fill-opacity="1"><g transform="translate(50.596021, 216.725386)"><g><path d="M 196.6875 -170.78125 C 205.5625 -162.625 208.195312 -152.789062 204.59375 -141.28125 C 203.925781 -139.28125 203.09375 -137.335938 202.09375 -135.453125 C 200.25 -132.117188 198.132812 -128.988281 195.75 -126.0625 C 193.375 -123.144531 190.851562 -120.351562 188.1875 -117.6875 C 186.394531 -115.800781 184.304688 -115.164062 181.921875 -115.78125 C 181.253906 -115.832031 180.8125 -116.164062 180.59375 -116.78125 C 180.476562 -117.382812 180.644531 -117.882812 181.09375 -118.28125 C 185.425781 -122.457031 189.226562 -127.09375 192.5 -132.1875 C 194.832031 -135.582031 196.53125 -139.25 197.59375 -143.1875 C 200.195312 -153.851562 197.273438 -162.640625 188.828125 -169.546875 C 184.828125 -172.703125 180.359375 -174.914062 175.421875 -176.1875 C 170.753906 -177.425781 166.070312 -178.234375 161.375 -178.609375 C 156.675781 -178.992188 151.945312 -179.019531 147.1875 -178.6875 C 139.945312 -178.257812 132.753906 -177.414062 125.609375 -176.15625 C 118.472656 -174.90625 111.378906 -173.414062 104.328125 -171.6875 C 95.109375 -169.414062 86.066406 -166.628906 77.203125 -163.328125 C 68.335938 -160.023438 59.738281 -156.097656 51.40625 -151.546875 C 43.34375 -147.210938 35.875 -142.015625 29 -135.953125 C 22.875 -130.566406 17.84375 -124.265625 13.90625 -117.046875 C 8.84375 -107.472656 9.269531 -98.140625 15.1875 -89.046875 C 18.9375 -83.585938 23.40625 -78.753906 28.59375 -74.546875 C 36.65625 -67.878906 45.15625 -61.878906 54.09375 -56.546875 C 61.632812 -52.035156 69.164062 -47.582031 76.6875 -43.1875 C 81.6875 -40.300781 86.65625 -37.390625 91.59375 -34.453125 C 95.132812 -32.390625 98.601562 -30.257812 102 -28.0625 C 105.394531 -25.875 108.695312 -23.503906 111.90625 -20.953125 C 113.851562 -19.347656 115.992188 -18.953125 118.328125 -19.765625 C 126.328125 -22.109375 134.445312 -23.78125 142.6875 -24.78125 C 142.957031 -24.78125 143.226562 -24.804688 143.5 -24.859375 C 145.382812 -25.191406 147.21875 -25.191406 149 -24.859375 C 149.457031 -24.742188 149.851562 -24.535156 150.1875 -24.234375 C 150.519531 -23.929688 150.6875 -23.472656 150.6875 -22.859375 C 150.6875 -22.253906 150.503906 -21.800781 150.140625 -21.5 C 149.773438 -21.195312 149.363281 -21.046875 148.90625 -21.046875 C 146.03125 -20.984375 143.226562 -20.6875 140.5 -20.15625 C 137.769531 -19.625 135.070312 -19.023438 132.40625 -18.359375 C 130.257812 -17.816406 128.15625 -17.347656 126.09375 -16.953125 C 125.820312 -16.890625 125.566406 -16.828125 125.328125 -16.765625 C 124.328125 -16.617188 123.335938 -16.378906 122.359375 -16.046875 C 121.390625 -15.710938 120.546875 -15.210938 119.828125 -14.546875 C 120.335938 -13.210938 121.0625 -12.117188 122 -11.265625 C 122.394531 -10.785156 122.789062 -10.285156 123.1875 -9.765625 C 124.851562 -7.554688 126.304688 -5.269531 127.546875 -2.90625 C 128.785156 -0.539062 129.710938 1.972656 130.328125 4.640625 C 131.773438 11.515625 129.53125 16.816406 123.59375 20.546875 C 121.59375 21.722656 119.503906 22.722656 117.328125 23.546875 C 109.566406 26.335938 101.59375 27.503906 93.40625 27.046875 C 90.195312 26.835938 87.195312 26.035156 84.40625 24.640625 C 80.59375 22.640625 78.085938 19.832031 76.890625 16.21875 C 75.691406 12.613281 76.03125 8.890625 77.90625 5.046875 C 79.1875 2.554688 80.851562 0.421875 82.90625 -1.359375 C 85.519531 -3.691406 88.300781 -5.773438 91.25 -7.609375 C 94.207031 -9.441406 97.257812 -11.132812 100.40625 -12.6875 C 101.738281 -13.351562 103.046875 -14.019531 104.328125 -14.6875 C 104.992188 -15.019531 105.660156 -15.351562 106.328125 -15.6875 C 106.378906 -16.40625 106.253906 -16.960938 105.953125 -17.359375 C 105.648438 -17.753906 105.300781 -18.085938 104.90625 -18.359375 C 104.757812 -18.421875 104.625 -18.53125 104.5 -18.6875 C 99.101562 -22.800781 93.46875 -26.554688 87.59375 -29.953125 C 80.46875 -34.171875 73.300781 -38.335938 66.09375 -42.453125 C 63.09375 -44.179688 60.09375 -45.957031 57.09375 -47.78125 C 46.695312 -53.78125 36.695312 -60.367188 27.09375 -67.546875 C 21.15625 -71.972656 15.789062 -76.972656 11 -82.546875 C 8.664062 -85.421875 6.695312 -88.523438 5.09375 -91.859375 C 1.695312 -98.984375 1.363281 -106.316406 4.09375 -113.859375 C 5.488281 -117.742188 7.351562 -121.328125 9.6875 -124.609375 C 12.019531 -127.898438 14.59375 -131.015625 17.40625 -133.953125 C 23.675781 -140.441406 30.601562 -145.972656 38.1875 -150.546875 C 50.789062 -158.304688 64.09375 -164.519531 78.09375 -169.1875 C 95.582031 -175.03125 113.445312 -179.195312 131.6875 -181.6875 C 138.019531 -182.53125 144.375 -183.035156 150.75 -183.203125 C 157.132812 -183.367188 163.492188 -182.953125 169.828125 -181.953125 C 173.609375 -181.441406 177.28125 -180.644531 180.84375 -179.5625 C 184.40625 -178.488281 187.820312 -176.953125 191.09375 -174.953125 C 193.09375 -173.679688 194.957031 -172.289062 196.6875 -170.78125 Z M 113.1875 -10.546875 C 112.125 -11.640625 110.894531 -11.804688 109.5 -11.046875 C 105.957031 -9.472656 102.539062 -7.695312 99.25 -5.71875 C 95.96875 -3.75 92.828125 -1.523438 89.828125 0.953125 C 88.210938 2.347656 86.878906 3.96875 85.828125 5.8125 C 83.828125 9.632812 83.601562 13.171875 85.15625 16.421875 C 86.71875 19.679688 89.609375 21.691406 93.828125 22.453125 C 94.828125 22.578125 95.71875 22.671875 96.5 22.734375 C 96.769531 22.734375 97 22.734375 97.1875 22.734375 C 103.613281 22.546875 109.445312 21.238281 114.6875 18.8125 C 121.226562 16.03125 123.609375 11.195312 121.828125 4.3125 C 121.066406 1.46875 119.9375 -1.171875 118.4375 -3.609375 C 116.9375 -6.046875 115.1875 -8.359375 113.1875 -10.546875 Z M 113.1875 -10.546875 "/></g></g></g><g fill="#fdd122" fill-opacity="1"><g transform="translate(196.788751, 216.725386)"><g><path d="M 44.546875 -22.0625 C 47.117188 -24.925781 48.472656 -26.023438 48.609375 -25.359375 C 48.742188 -24.691406 48.191406 -23.140625 46.953125 -20.703125 C 45.710938 -18.265625 43.789062 -16.179688 41.1875 -14.453125 C 39.269531 -13.273438 37.625 -12.476562 36.25 -12.0625 C 34.875 -11.65625 33.625 -11.421875 32.5 -11.359375 C 30.289062 -11.242188 28.601562 -11.878906 27.4375 -13.265625 C 26.269531 -14.660156 25.457031 -16.457031 25 -18.65625 C 24.539062 -20.851562 24.207031 -23.117188 24 -25.453125 C 23.789062 -26.941406 23.59375 -28.273438 23.40625 -29.453125 C 23.132812 -31.335938 22.597656 -32.375 21.796875 -32.5625 C 20.992188 -32.757812 19.757812 -31.554688 18.09375 -28.953125 C 16.363281 -26.171875 14.847656 -23.097656 13.546875 -19.734375 C 12.242188 -16.367188 11.09375 -13.078125 10.09375 -9.859375 C 10.03125 -9.742188 9.96875 -9.578125 9.90625 -9.359375 C 9.695312 -8.910156 9.53125 -8.441406 9.40625 -7.953125 C 9.007812 -6.617188 8.539062 -5.316406 8 -4.046875 C 7.539062 -2.984375 6.757812 -2.285156 5.65625 -1.953125 C 4.550781 -1.617188 3.394531 -1.695312 2.1875 -2.1875 C 1.394531 -2.519531 0.863281 -3.078125 0.59375 -3.859375 C 0.195312 -5.078125 0.0625 -6.304688 0.1875 -7.546875 C 0.1875 -7.691406 0.1875 -7.796875 0.1875 -7.859375 C 0.457031 -13.128906 0.5 -21.90625 0.3125 -34.1875 C 0.164062 -43.96875 0.09375 -54.492188 0.09375 -65.765625 C 0.09375 -77.046875 0.378906 -87.6875 0.953125 -97.6875 C 1.523438 -107.6875 2.507812 -115.6875 3.90625 -121.6875 C 4.507812 -123.863281 5.507812 -125.820312 6.90625 -127.5625 C 8.300781 -129.3125 9.847656 -130.269531 11.546875 -130.4375 C 13.242188 -130.601562 14.832031 -129.441406 16.3125 -126.953125 C 17.3125 -124.835938 17.9375 -122.582031 18.1875 -120.1875 C 18.851562 -113.09375 18.253906 -102.195312 16.390625 -87.5 C 14.523438 -72.800781 12.578125 -59.9375 10.546875 -48.90625 C 8.515625 -37.875 7.5 -28.660156 7.5 -21.265625 C 8.164062 -22.390625 8.832031 -23.585938 9.5 -24.859375 C 10.4375 -26.742188 11.488281 -28.617188 12.65625 -30.484375 C 13.820312 -32.347656 15.203125 -33.929688 16.796875 -35.234375 C 18.390625 -36.535156 20.320312 -37.351562 22.59375 -37.6875 C 24.132812 -37.925781 25.703125 -37.816406 27.296875 -37.359375 C 28.890625 -36.910156 29.957031 -35.804688 30.5 -34.046875 C 31.164062 -30.984375 31.394531 -27.726562 31.1875 -24.28125 C 31.1875 -20.601562 31.820312 -18.28125 33.09375 -17.3125 C 34.363281 -16.34375 35.945312 -16.175781 37.84375 -16.8125 C 39.738281 -17.445312 41.972656 -19.195312 44.546875 -22.0625 Z M 10.59375 -116.046875 C 10.257812 -112.253906 9.878906 -105.925781 9.453125 -97.0625 C 9.023438 -88.207031 8.660156 -79.320312 8.359375 -70.40625 C 8.054688 -61.5 7.90625 -54.09375 7.90625 -48.1875 C 8.632812 -53.519531 9.515625 -60.460938 10.546875 -69.015625 C 11.578125 -77.578125 12.492188 -86.390625 13.296875 -95.453125 C 14.097656 -104.515625 14.5 -111.316406 14.5 -115.859375 C 14.4375 -118.253906 14.269531 -120.035156 14 -121.203125 C 13.726562 -122.367188 13.273438 -122.785156 12.640625 -122.453125 C 12.003906 -122.117188 11.519531 -121.269531 11.1875 -119.90625 C 10.851562 -118.550781 10.65625 -117.265625 10.59375 -116.046875 Z M 10.59375 -116.046875 "/></g></g></g><g fill="#fdd122" fill-opacity="1"><g transform="translate(242.92857, 216.725386)"><g><path d="M 34.90625 -24.859375 C 35.363281 -25.316406 35.609375 -24.765625 35.640625 -23.203125 C 35.671875 -21.640625 34.253906 -19.457031 31.390625 -16.65625 C 28.523438 -13.851562 25.5625 -12.53125 22.5 -12.6875 C 21.832031 -12.738281 21.265625 -12.679688 20.796875 -12.515625 C 20.328125 -12.347656 19.925781 -11.960938 19.59375 -11.359375 C 19.257812 -10.816406 18.863281 -10.316406 18.40625 -9.859375 C 18.40625 -9.859375 18.375 -9.828125 18.3125 -9.765625 C 16.4375 -7.765625 14.234375 -6.445312 11.703125 -5.8125 C 9.171875 -5.175781 6.769531 -5.375 4.5 -6.40625 C 2.226562 -7.4375 0.59375 -9.390625 -0.40625 -12.265625 C -1.132812 -14.878906 -1.195312 -17.472656 -0.59375 -20.046875 C -0.0703125 -22.316406 0.757812 -24.453125 1.90625 -26.453125 C 3.300781 -29.117188 5.113281 -31.003906 7.34375 -32.109375 C 9.570312 -33.222656 12.09375 -33.835938 14.90625 -33.953125 C 19.09375 -34.171875 21.726562 -32.203125 22.8125 -28.046875 C 23.476562 -25.648438 23.644531 -23.222656 23.3125 -20.765625 C 23.226562 -20.222656 23.125 -19.648438 23 -19.046875 C 22.875 -18.648438 22.769531 -18.253906 22.6875 -17.859375 C 22.5625 -16.523438 23.132812 -15.921875 24.40625 -16.046875 C 27.925781 -16.648438 31.425781 -19.585938 34.90625 -24.859375 Z M 10.1875 -9.359375 C 12.332031 -10.359375 13.832031 -12.054688 14.6875 -14.453125 C 11.101562 -16.722656 8.707031 -20 7.5 -24.28125 C 6.375 -22.269531 5.691406 -19.929688 5.453125 -17.265625 C 5.210938 -14.597656 5.476562 -12.394531 6.25 -10.65625 C 7.019531 -8.914062 8.332031 -8.484375 10.1875 -9.359375 Z M 16.3125 -19.1875 C 16.894531 -20.03125 17.238281 -21.070312 17.34375 -22.3125 C 17.445312 -23.5625 17.382812 -24.796875 17.15625 -26.015625 C 16.925781 -27.242188 16.609375 -28.207031 16.203125 -28.90625 C 15.796875 -29.601562 15.363281 -29.816406 14.90625 -29.546875 C 14.09375 -28.816406 13.640625 -27.769531 13.546875 -26.40625 C 13.453125 -25.039062 13.65625 -23.675781 14.15625 -22.3125 C 14.65625 -20.945312 15.375 -19.90625 16.3125 -19.1875 Z M 16.3125 -19.1875 "/></g></g></g><g fill="#fdd122" fill-opacity="1"><g transform="translate(276.794744, 216.725386)"><g><path d="M 34.59375 -22.359375 C 35.988281 -22.691406 37.789062 -23.660156 40 -25.265625 C 42.207031 -26.878906 43.207031 -26.910156 43 -25.359375 C 42.789062 -23.816406 41.585938 -22.53125 39.390625 -21.5 C 37.191406 -20.46875 35.164062 -19.722656 33.3125 -19.265625 C 32.832031 -19.117188 32.359375 -18.863281 31.890625 -18.5 C 31.421875 -18.132812 31.125 -17.722656 31 -17.265625 C 30.664062 -15.328125 30 -13.523438 29 -11.859375 C 26.394531 -7.796875 22.695312 -6.191406 17.90625 -7.046875 C 16.03125 -7.523438 14.828125 -8.445312 14.296875 -9.8125 C 13.765625 -11.175781 14.03125 -12.691406 15.09375 -14.359375 C 16.570312 -16.296875 18.40625 -17.738281 20.59375 -18.6875 C 21.40625 -19.070312 22.144531 -19.359375 22.8125 -19.546875 C 23.144531 -19.691406 23.539062 -19.828125 24 -19.953125 C 24.875 -20.441406 25.34375 -21.367188 25.40625 -22.734375 C 25.46875 -24.097656 25.148438 -25.457031 24.453125 -26.8125 C 23.753906 -28.175781 22.785156 -29.109375 21.546875 -29.609375 C 20.304688 -30.109375 18.820312 -29.664062 17.09375 -28.28125 C 15.425781 -26.726562 14.164062 -24.921875 13.3125 -22.859375 C 11.3125 -18.742188 9.9375 -14.410156 9.1875 -9.859375 C 7.851562 -1.859375 6.925781 6.140625 6.40625 14.140625 C 6.195312 17.867188 5.832031 21.566406 5.3125 25.234375 C 5.101562 26.773438 4.9375 28.347656 4.8125 29.953125 C 4.726562 30.472656 4.59375 31.003906 4.40625 31.546875 C 4.132812 32.546875 3.394531 32.96875 2.1875 32.8125 C 0.9375 32.757812 0.269531 32.203125 0.1875 31.140625 C 0.125 30.015625 0.125 28.878906 0.1875 27.734375 C 0.1875 27.453125 0.1875 27.222656 0.1875 27.046875 C 0.269531 25.648438 0.34375 24.238281 0.40625 22.8125 C 0.46875 20.300781 0.53125 17.800781 0.59375 15.3125 C 0.738281 5.195312 0.675781 -4.992188 0.40625 -15.265625 C 0.34375 -19.117188 0.269531 -22.925781 0.1875 -26.6875 C 0.1875 -27.082031 0.1875 -27.472656 0.1875 -27.859375 C 0.0625 -29.191406 0.132812 -30.492188 0.40625 -31.765625 C 0.675781 -33.046875 1.507812 -33.773438 2.90625 -33.953125 C 4.363281 -34.109375 5.257812 -33.441406 5.59375 -31.953125 C 5.59375 -31.835938 5.59375 -31.703125 5.59375 -31.546875 C 6.070312 -28.703125 6.507812 -24.941406 6.90625 -20.265625 C 7.96875 -23.390625 9.300781 -25.90625 10.90625 -27.8125 C 12.507812 -29.726562 14.40625 -31.140625 16.59375 -32.046875 C 18.40625 -32.867188 20.273438 -33.195312 22.203125 -33.03125 C 24.128906 -32.863281 25.878906 -32.070312 27.453125 -30.65625 C 29.023438 -29.25 30.101562 -27.148438 30.6875 -24.359375 C 30.957031 -23.148438 31.328125 -22.429688 31.796875 -22.203125 C 32.265625 -21.972656 33.195312 -22.023438 34.59375 -22.359375 Z M 21 -9.953125 C 22.207031 -10.617188 23.144531 -11.503906 23.8125 -12.609375 C 24.476562 -13.710938 24.828125 -14.679688 24.859375 -15.515625 C 24.890625 -16.347656 24.539062 -16.660156 23.8125 -16.453125 C 21.9375 -15.722656 20.648438 -14.773438 19.953125 -13.609375 C 19.253906 -12.441406 19.019531 -11.441406 19.25 -10.609375 C 19.476562 -9.773438 20.0625 -9.554688 21 -9.953125 Z M 21 -9.953125 "/></g></g></g><g clip-path="url(#66cb1e4407)"><g clip-path="url(#d881f14c11)"><g clip-path="url(#8ce8b6cc86)"><path fill="#fdd122" d="M 71.21875 139.167969 C 70.492188 138.394531 69.285156 138.355469 68.511719 139.078125 C 67.738281 139.804688 67.699219 141.015625 68.425781 141.785156 C 72.929688 146.601562 76.90625 150.285156 81.140625 153.222656 L 81.261719 153.300781 C 85.480469 156.214844 89.917969 158.363281 95.328125 160.109375 C 129.992188 171.304688 175.75 156.253906 220.359375 141.582031 C 282.371094 121.179688 342.125 101.523438 363.984375 155.929688 C 364.371094 156.910156 365.488281 157.390625 366.472656 156.996094 C 367.457031 156.605469 367.933594 155.488281 367.539062 154.503906 C 344.34375 96.777344 282.921875 116.980469 219.171875 137.949219 C 175.140625 152.4375 129.980469 167.292969 96.488281 156.476562 C 91.445312 154.847656 87.328125 152.859375 83.429688 150.167969 L 83.316406 150.082031 C 79.355469 147.328125 75.558594 143.808594 71.226562 139.171875 Z M 71.21875 139.167969 " fill-opacity="1" fill-rule="evenodd"/></g></g></g><g fill="#231f20" fill-opacity="1"><g transform="translate(90.802751, 257.837756)"><g><path d="M 1.6875 -11.28125 L 9.34375 -11.28125 L 9.34375 -10.15625 L 2.90625 -10.15625 L 2.90625 -6.28125 L 8.0625 -6.28125 L 8.0625 -5.15625 L 2.90625 -5.15625 L 2.90625 0 L 1.6875 0 Z M 1.6875 -11.28125 "/></g></g></g><g fill="#231f20" fill-opacity="1"><g transform="translate(111.026353, 257.837756)"><g><path d="M 1.6875 -11.28125 L 2.90625 -11.28125 L 2.90625 0 L 1.6875 0 Z M 1.6875 -11.28125 "/></g></g></g><g fill="#231f20" fill-opacity="1"><g transform="translate(125.932207, 257.837756)"><g><path d="M 1.6875 -11.28125 L 2.734375 -11.28125 L 9.671875 -2.171875 L 9.671875 -11.28125 L 10.875 -11.28125 L 10.875 0 L 9.828125 0 L 2.90625 -9.109375 L 2.90625 0 L 1.6875 0 Z M 1.6875 -11.28125 "/></g></g></g><g fill="#231f20" fill-opacity="1"><g transform="translate(148.814682, 257.837756)"><g><path d="M 1.6875 -11.28125 L 5.234375 -11.28125 C 6.054688 -11.28125 6.828125 -11.128906 7.546875 -10.828125 C 8.265625 -10.523438 8.890625 -10.113281 9.421875 -9.59375 C 9.953125 -9.082031 10.363281 -8.484375 10.65625 -7.796875 C 10.957031 -7.117188 11.109375 -6.398438 11.109375 -5.640625 C 11.109375 -4.878906 10.957031 -4.15625 10.65625 -3.46875 C 10.363281 -2.789062 9.953125 -2.191406 9.421875 -1.671875 C 8.890625 -1.160156 8.265625 -0.753906 7.546875 -0.453125 C 6.828125 -0.148438 6.054688 0 5.234375 0 L 1.6875 0 Z M 5.234375 -1.125 C 5.898438 -1.125 6.515625 -1.242188 7.078125 -1.484375 C 7.648438 -1.722656 8.144531 -2.046875 8.5625 -2.453125 C 8.988281 -2.859375 9.316406 -3.332031 9.546875 -3.875 C 9.785156 -4.425781 9.90625 -5.015625 9.90625 -5.640625 C 9.90625 -6.265625 9.785156 -6.847656 9.546875 -7.390625 C 9.316406 -7.941406 8.988281 -8.421875 8.5625 -8.828125 C 8.144531 -9.234375 7.648438 -9.554688 7.078125 -9.796875 C 6.515625 -10.035156 5.898438 -10.15625 5.234375 -10.15625 L 2.90625 -10.15625 L 2.90625 -1.125 Z M 5.234375 -1.125 "/></g></g></g><g fill="#231f20" fill-opacity="1"><g transform="translate(171.213731, 257.837756)"><g/></g></g><g fill="#231f20" fill-opacity="1"><g transform="translate(184.911001, 257.837756)"><g><path d="M 0.484375 -11.28125 L 1.765625 -11.28125 L 4.75 -1.859375 L 7.8125 -11.28125 L 8.9375 -11.28125 L 12 -1.859375 L 14.984375 -11.28125 L 16.265625 -11.28125 L 12.5625 0 L 11.359375 0 L 8.375 -9.421875 L 5.390625 0 L 4.1875 0 Z M 0.484375 -11.28125 "/></g></g></g><g fill="#231f20" fill-opacity="1"><g transform="translate(211.983227, 257.837756)"><g><path d="M 1.6875 -11.28125 L 2.90625 -11.28125 L 2.90625 -6.28125 L 9.1875 -6.28125 L 9.1875 -11.28125 L 10.390625 -11.28125 L 10.390625 0 L 9.1875 0 L 9.1875 -5.15625 L 2.90625 -5.15625 L 2.90625 0 L 1.6875 0 Z M 1.6875 -11.28125 "/></g></g></g><g fill="#231f20" fill-opacity="1"><g transform="translate(234.382281, 257.837756)"><g><path d="M 5 -11.28125 L 6.125 -11.28125 L 10.796875 0 L 9.5 0 L 8.21875 -3.140625 L 2.90625 -3.140625 L 1.609375 0 L 0.328125 0 Z M 7.734375 -4.265625 L 5.5625 -9.578125 L 3.390625 -4.265625 Z M 7.734375 -4.265625 "/></g></g></g><g fill="#231f20" fill-opacity="1"><g transform="translate(255.814464, 257.837756)"><g><path d="M 3.859375 -10.15625 L 0.328125 -10.15625 L 0.328125 -11.28125 L 8.625 -11.28125 L 8.625 -10.15625 L 5.078125 -10.15625 L 5.078125 0 L 3.859375 0 Z M 3.859375 -10.15625 "/></g></g></g><g fill="#231f20" fill-opacity="1"><g transform="translate(275.071203, 257.837756)"><g><path d="M 4.515625 0.15625 C 3.867188 0.15625 3.304688 0.0703125 2.828125 -0.09375 C 2.347656 -0.269531 1.953125 -0.460938 1.640625 -0.671875 C 1.273438 -0.921875 0.96875 -1.207031 0.71875 -1.53125 L 1.453125 -2.359375 C 1.648438 -2.085938 1.894531 -1.851562 2.1875 -1.65625 C 2.4375 -1.476562 2.753906 -1.316406 3.140625 -1.171875 C 3.523438 -1.035156 3.984375 -0.96875 4.515625 -0.96875 C 5.359375 -0.96875 6 -1.160156 6.4375 -1.546875 C 6.875 -1.941406 7.09375 -2.445312 7.09375 -3.0625 C 7.09375 -3.425781 7.003906 -3.722656 6.828125 -3.953125 C 6.648438 -4.179688 6.414062 -4.375 6.125 -4.53125 C 5.84375 -4.695312 5.519531 -4.835938 5.15625 -4.953125 C 4.789062 -5.066406 4.414062 -5.179688 4.03125 -5.296875 C 3.644531 -5.421875 3.269531 -5.550781 2.90625 -5.6875 C 2.539062 -5.832031 2.210938 -6.019531 1.921875 -6.25 C 1.640625 -6.488281 1.410156 -6.773438 1.234375 -7.109375 C 1.054688 -7.453125 0.96875 -7.875 0.96875 -8.375 C 0.96875 -8.78125 1.050781 -9.164062 1.21875 -9.53125 C 1.382812 -9.90625 1.625 -10.234375 1.9375 -10.515625 C 2.257812 -10.796875 2.640625 -11.019531 3.078125 -11.1875 C 3.523438 -11.351562 4.03125 -11.4375 4.59375 -11.4375 C 5.132812 -11.4375 5.609375 -11.359375 6.015625 -11.203125 C 6.429688 -11.054688 6.78125 -10.894531 7.0625 -10.71875 C 7.382812 -10.5 7.660156 -10.253906 7.890625 -9.984375 L 7.09375 -9.1875 C 6.914062 -9.382812 6.703125 -9.570312 6.453125 -9.75 C 6.242188 -9.882812 5.984375 -10.007812 5.671875 -10.125 C 5.367188 -10.25 5.007812 -10.3125 4.59375 -10.3125 C 4.207031 -10.3125 3.863281 -10.253906 3.5625 -10.140625 C 3.257812 -10.035156 3.003906 -9.894531 2.796875 -9.71875 C 2.597656 -9.539062 2.441406 -9.335938 2.328125 -9.109375 C 2.222656 -8.878906 2.171875 -8.632812 2.171875 -8.375 C 2.171875 -7.894531 2.320312 -7.519531 2.625 -7.25 C 2.925781 -6.988281 3.304688 -6.769531 3.765625 -6.59375 C 4.222656 -6.425781 4.710938 -6.269531 5.234375 -6.125 C 5.765625 -5.988281 6.253906 -5.804688 6.703125 -5.578125 C 7.160156 -5.347656 7.539062 -5.035156 7.84375 -4.640625 C 8.144531 -4.253906 8.296875 -3.726562 8.296875 -3.0625 C 8.296875 -2.601562 8.210938 -2.175781 8.046875 -1.78125 C 7.878906 -1.382812 7.632812 -1.039062 7.3125 -0.75 C 6.988281 -0.46875 6.585938 -0.242188 6.109375 -0.078125 C 5.640625 0.078125 5.109375 0.15625 4.515625 0.15625 Z M 4.515625 0.15625 "/></g></g></g><g fill="#231f20" fill-opacity="1"><g transform="translate(138.851904, 273.952058)"><g><path d="M 4.515625 -3.953125 L 0.328125 -11.28125 L 1.6875 -11.28125 L 5.078125 -5.234375 L 5.15625 -5.234375 L 8.53125 -11.28125 L 9.90625 -11.28125 L 5.71875 -3.953125 L 5.71875 0 L 4.515625 0 Z M 4.515625 -3.953125 "/></g></g></g><g fill="#231f20" fill-opacity="1"><g transform="translate(159.3978, 273.952058)"><g><path d="M 6.765625 0.15625 C 5.960938 0.15625 5.207031 0.0078125 4.5 -0.28125 C 3.800781 -0.582031 3.1875 -0.992188 2.65625 -1.515625 C 2.132812 -2.046875 1.722656 -2.664062 1.421875 -3.375 C 1.117188 -4.082031 0.96875 -4.835938 0.96875 -5.640625 C 0.96875 -6.441406 1.117188 -7.191406 1.421875 -7.890625 C 1.722656 -8.597656 2.132812 -9.210938 2.65625 -9.734375 C 3.1875 -10.265625 3.800781 -10.679688 4.5 -10.984375 C 5.207031 -11.285156 5.960938 -11.4375 6.765625 -11.4375 C 7.566406 -11.4375 8.316406 -11.285156 9.015625 -10.984375 C 9.722656 -10.679688 10.335938 -10.265625 10.859375 -9.734375 C 11.390625 -9.210938 11.804688 -8.597656 12.109375 -7.890625 C 12.410156 -7.191406 12.5625 -6.441406 12.5625 -5.640625 C 12.5625 -4.835938 12.410156 -4.082031 12.109375 -3.375 C 11.804688 -2.664062 11.390625 -2.046875 10.859375 -1.515625 C 10.335938 -0.992188 9.722656 -0.582031 9.015625 -0.28125 C 8.316406 0.0078125 7.566406 0.15625 6.765625 0.15625 Z M 6.765625 -0.96875 C 7.410156 -0.96875 8.007812 -1.082031 8.5625 -1.3125 C 9.125 -1.550781 9.609375 -1.878906 10.015625 -2.296875 C 10.429688 -2.722656 10.757812 -3.21875 11 -3.78125 C 11.238281 -4.351562 11.359375 -4.972656 11.359375 -5.640625 C 11.359375 -6.304688 11.238281 -6.921875 11 -7.484375 C 10.757812 -8.054688 10.429688 -8.550781 10.015625 -8.96875 C 9.609375 -9.382812 9.125 -9.710938 8.5625 -9.953125 C 8.007812 -10.191406 7.410156 -10.3125 6.765625 -10.3125 C 6.117188 -10.3125 5.515625 -10.191406 4.953125 -9.953125 C 4.398438 -9.710938 3.914062 -9.382812 3.5 -8.96875 C 3.09375 -8.550781 2.769531 -8.054688 2.53125 -7.484375 C 2.289062 -6.921875 2.171875 -6.304688 2.171875 -5.640625 C 2.171875 -4.972656 2.289062 -4.351562 2.53125 -3.78125 C 2.769531 -3.21875 3.09375 -2.722656 3.5 -2.296875 C 3.914062 -1.878906 4.398438 -1.550781 4.953125 -1.3125 C 5.515625 -1.082031 6.117188 -0.96875 6.765625 -0.96875 Z M 6.765625 -0.96875 "/></g></g></g><g fill="#231f20" fill-opacity="1"><g transform="translate(183.247158, 273.952058)"><g><path d="M 6.125 0.15625 C 5.476562 0.15625 4.875 0.0390625 4.3125 -0.1875 C 3.757812 -0.425781 3.273438 -0.75 2.859375 -1.15625 C 2.441406 -1.570312 2.113281 -2.0625 1.875 -2.625 C 1.644531 -3.1875 1.53125 -3.789062 1.53125 -4.4375 L 1.53125 -11.28125 L 2.734375 -11.28125 L 2.734375 -4.4375 C 2.734375 -3.925781 2.816406 -3.457031 2.984375 -3.03125 C 3.160156 -2.613281 3.398438 -2.25 3.703125 -1.9375 C 4.003906 -1.632812 4.359375 -1.394531 4.765625 -1.21875 C 5.179688 -1.050781 5.632812 -0.96875 6.125 -0.96875 C 6.601562 -0.96875 7.050781 -1.050781 7.46875 -1.21875 C 7.882812 -1.394531 8.238281 -1.632812 8.53125 -1.9375 C 8.832031 -2.25 9.066406 -2.613281 9.234375 -3.03125 C 9.410156 -3.457031 9.5 -3.925781 9.5 -4.4375 L 9.5 -11.28125 L 10.71875 -11.28125 L 10.71875 -4.4375 C 10.71875 -3.789062 10.597656 -3.1875 10.359375 -2.625 C 10.117188 -2.0625 9.789062 -1.570312 9.375 -1.15625 C 8.96875 -0.75 8.484375 -0.425781 7.921875 -0.1875 C 7.367188 0.0390625 6.769531 0.15625 6.125 0.15625 Z M 6.125 0.15625 "/></g></g></g><g fill="#231f20" fill-opacity="1"><g transform="translate(205.807364, 273.952058)"><g><path d="M 1.6875 -11.28125 L 6.203125 -11.28125 C 6.703125 -11.28125 7.164062 -11.191406 7.59375 -11.015625 C 8.019531 -10.847656 8.382812 -10.613281 8.6875 -10.3125 C 9 -10.007812 9.238281 -9.648438 9.40625 -9.234375 C 9.582031 -8.828125 9.671875 -8.378906 9.671875 -7.890625 C 9.671875 -7.242188 9.546875 -6.710938 9.296875 -6.296875 C 9.046875 -5.890625 8.773438 -5.5625 8.484375 -5.3125 C 8.140625 -5.03125 7.753906 -4.816406 7.328125 -4.671875 L 9.984375 0 L 8.625 0 L 6.125 -4.515625 L 2.90625 -4.515625 L 2.90625 0 L 1.6875 0 Z M 6.203125 -5.640625 C 6.890625 -5.640625 7.4375 -5.84375 7.84375 -6.25 C 8.25 -6.65625 8.453125 -7.203125 8.453125 -7.890625 C 8.453125 -8.578125 8.25 -9.125 7.84375 -9.53125 C 7.4375 -9.945312 6.890625 -10.15625 6.203125 -10.15625 L 2.90625 -10.15625 L 2.90625 -5.640625 Z M 6.203125 -5.640625 "/></g></g></g><g fill="#231f20" fill-opacity="1"><g transform="translate(226.997828, 273.952058)"><g><path d="M 4.515625 0.15625 C 3.867188 0.15625 3.304688 0.0703125 2.828125 -0.09375 C 2.347656 -0.269531 1.953125 -0.460938 1.640625 -0.671875 C 1.273438 -0.921875 0.96875 -1.207031 0.71875 -1.53125 L 1.453125 -2.359375 C 1.648438 -2.085938 1.894531 -1.851562 2.1875 -1.65625 C 2.4375 -1.476562 2.753906 -1.316406 3.140625 -1.171875 C 3.523438 -1.035156 3.984375 -0.96875 4.515625 -0.96875 C 5.359375 -0.96875 6 -1.160156 6.4375 -1.546875 C 6.875 -1.941406 7.09375 -2.445312 7.09375 -3.0625 C 7.09375 -3.425781 7.003906 -3.722656 6.828125 -3.953125 C 6.648438 -4.179688 6.414062 -4.375 6.125 -4.53125 C 5.84375 -4.695312 5.519531 -4.835938 5.15625 -4.953125 C 4.789062 -5.066406 4.414062 -5.179688 4.03125 -5.296875 C 3.644531 -5.421875 3.269531 -5.550781 2.90625 -5.6875 C 2.539062 -5.832031 2.210938 -6.019531 1.921875 -6.25 C 1.640625 -6.488281 1.410156 -6.773438 1.234375 -7.109375 C 1.054688 -7.453125 0.96875 -7.875 0.96875 -8.375 C 0.96875 -8.78125 1.050781 -9.164062 1.21875 -9.53125 C 1.382812 -9.90625 1.625 -10.234375 1.9375 -10.515625 C 2.257812 -10.796875 2.640625 -11.019531 3.078125 -11.1875 C 3.523438 -11.351562 4.03125 -11.4375 4.59375 -11.4375 C 5.132812 -11.4375 5.609375 -11.359375 6.015625 -11.203125 C 6.429688 -11.054688 6.78125 -10.894531 7.0625 -10.71875 C 7.382812 -10.5 7.660156 -10.253906 7.890625 -9.984375 L 7.09375 -9.1875 C 6.914062 -9.382812 6.703125 -9.570312 6.453125 -9.75 C 6.242188 -9.882812 5.984375 -10.007812 5.671875 -10.125 C 5.367188 -10.25 5.007812 -10.3125 4.59375 -10.3125 C 4.207031 -10.3125 3.863281 -10.253906 3.5625 -10.140625 C 3.257812 -10.035156 3.003906 -9.894531 2.796875 -9.71875 C 2.597656 -9.539062 2.441406 -9.335938 2.328125 -9.109375 C 2.222656 -8.878906 2.171875 -8.632812 2.171875 -8.375 C 2.171875 -7.894531 2.320312 -7.519531 2.625 -7.25 C 2.925781 -6.988281 3.304688 -6.769531 3.765625 -6.59375 C 4.222656 -6.425781 4.710938 -6.269531 5.234375 -6.125 C 5.765625 -5.988281 6.253906 -5.804688 6.703125 -5.578125 C 7.160156 -5.347656 7.539062 -5.035156 7.84375 -4.640625 C 8.144531 -4.253906 8.296875 -3.726562 8.296875 -3.0625 C 8.296875 -2.601562 8.210938 -2.175781 8.046875 -1.78125 C 7.878906 -1.382812 7.632812 -1.039062 7.3125 -0.75 C 6.988281 -0.46875 6.585938 -0.242188 6.109375 -0.078125 C 5.640625 0.078125 5.109375 0.15625 4.515625 0.15625 Z M 4.515625 0.15625 "/></g></g></g></svg>